<svg xmlns="http://www.w3.org/2000/svg" width="640" height="360" viewBox="0 0 640 360" fill="none">
  <path d="M80 240C80 218.326 97.3269 201 119 201H521C542.673 201 560 218.326 560 240V256H584C593.493 256 601 263.507 601 273V297C601 306.493 593.493 314 584 314H556C548.268 314 541.346 308.387 540.497 300.735L538.503 284.265C538.111 280.51 535.071 277.5 531.296 277.5H108.704C104.929 277.5 101.889 280.51 101.497 284.265L99.5034 300.735C98.6538 308.387 91.7317 314 84 314H56C46.507 314 39 306.493 39 297V273C39 263.507 46.507 256 56 256H80V240Z" fill="#c7b8f5" opacity="0.48"/>
  <path d="M128 240H512L536 176H104L128 240Z" fill="#b79bf7" opacity="0.42"/>
  <circle cx="168" cy="276" r="28" fill="#9780ee" opacity="0.55"/>
  <circle cx="472" cy="276" r="28" fill="#9780ee" opacity="0.55"/>
  <path d="M159 264H177V281H159V264Z" fill="#f5efff" opacity="0.8"/>
  <path d="M463 264H481V281H463V264Z" fill="#f5efff" opacity="0.8"/>
  <path d="M128 176H512C523.046 176 532 185.954 532 197V224H108V197C108 185.954 116.954 176 128 176Z" fill="#9a7cfb" opacity="0.35"/>
</svg>
